<?xml version="1.0" encoding="utf-8"?>
<svg version="1.1" id="layer" xmlns="http://www.w3.org/2000/svg" xmlns:xlink="http://www.w3.org/1999/xlink"
	viewBox="0 0 652 652" style="enable-background:new 0 0 652 652" xml:space="preserve">
	<style type="text/css">
		.st0 {
			fill: #17313B;
		}

		.st1 {
			fill: #EF4335;
		}
	</style>
	<g>
		<path class="st0" d="M 177 235.9 h 27.6 v 170.4 H 177 V 235.9 z" />
		<path class="st0"
			d="M 300.6 352.3 c 0 26.4 -21.6 28.8 -28.8 28.8 c -16.8 0 -19.2 -15.6 -19.2 -24 v -66 H 225 v 64.8 c 0 15.6 4.8 30 14.4 38.4 c 8.4 8.4 19.2 12 32.4 12 c 9.6 0 21.6 -2.4 28.8 -9.6 v 9.6 h 27.6 V 291.1 h -27.6 C 300.6 291.1 300.6 352.3 300.6 352.3 z" />
		<path class="st0"
			d="M 382.2 249.1 h -27.6 v 42 h -20.4 v 26.4 h 20.4 v 88.8 h 27.6 v -88.8 h 20.4 v -26.4 h -20.4 V 249.1 z" />
		<path class="st0"
			d="M 489 371.5 c -6 4.8 -14.4 8.4 -22.8 8.4 c -19.2 0 -32.4 -14.4 -32.4 -33.6 s 13.2 -32.4 32.4 -32.4 c 8.4 0 16.8 2.4 22.8 8.4 l 3.6 3.6 l 19.2 -18 l -4.8 -3.6 c -10.8 -9.6 -25.2 -15.6 -40.8 -15.6 c -33.6 0 -58.8 25.2 -58.8 58.8 s 25.2 58.8 58.8 58.8 c 15.6 0 30 -6 40.8 -15.6 l 4.8 -3.6 l -19.2 -19.2 L 489 371.5 z" />
		<path class="st0"
			d="M 609 300.7 c -8.4 -8.4 -16.8 -12 -30 -12 c -9.6 0 -19.2 2.4 -26.4 9.6 v -62.4 H 525 v 170.4 h 27.6 v -63.6 c 0 -26.4 18 -28.8 25.2 -28.8 c 16.8 0 15.6 15.6 15.6 24 v 67.2 H 621 v -66 C 621 323.5 617.4 309.1 609 300.7 z" />
		<circle class="st1" cx="465" cy="347.5" r="19.2" />
		<path class="st0"
			d="M 138.6 364.3 c -9.6 9.6 -24 15.6 -39.6 15.6 c -30 0 -51.6 -24 -51.6 -56.4 s 21.6 -56.4 52.8 -56.4 c 14.4 0 28.8 6 39.6 16.8 l 3.6 3.6 l 18 -18 l -3.6 -3.6 c -15.6 -15.6 -36 -24 -57.6 -24 C 54.6 240.7 21 276.7 21 323.5 s 33.6 82.8 78 82.8 c 21.6 0 43.2 -8.4 57.6 -24 l 3.6 -3.6 l -18 -18 L 138.6 364.3 z" />
	</g>
</svg>